<?xml version="1.0" encoding="UTF-8" standalone="no"?>
<svg
   xmlns:dc="http://purl.org/dc/elements/1.1/"
   xmlns:cc="http://creativecommons.org/ns#"
   xmlns:rdf="http://www.w3.org/1999/02/22-rdf-syntax-ns#"
   xmlns:svg="http://www.w3.org/2000/svg"
   xmlns="http://www.w3.org/2000/svg"
   xmlns:sodipodi="http://sodipodi.sourceforge.net/DTD/sodipodi-0.dtd"
   xmlns:inkscape="http://www.inkscape.org/namespaces/inkscape"
   width="1024"
   height="500"
   viewBox="0 0 270.93333 132.29167"
   version="1.1"
   id="svg1224"
   inkscape:version="1.0 (4035a4fb49, 2020-05-01)"
   sodipodi:docname="feature_image.svg">
  <defs
     id="defs1218">
    <filter
       id="filter2036"
       inkscape:label="Drop Shadow"
       style="color-interpolation-filters:sRGB">
      <feFlood
         id="feFlood2026"
         result="flood"
         flood-color="rgb(0,0,0)"
         flood-opacity="0.501961" />
      <feComposite
         id="feComposite2028"
         result="composite1"
         operator="out"
         in2="SourceGraphic"
         in="flood" />
      <feGaussianBlur
         id="feGaussianBlur2030"
         result="blur"
         stdDeviation="1.5"
         in="composite1" />
      <feOffset
         id="feOffset2032"
         result="offset"
         dy="0"
         dx="0" />
      <feComposite
         id="feComposite2034"
         result="composite2"
         operator="atop"
         in2="SourceGraphic"
         in="offset" />
    </filter>
    <filter
       id="filter2965-4"
       inkscape:label="Drop Shadow"
       style="color-interpolation-filters:sRGB">
      <feFlood
         id="feFlood2955-7"
         result="flood"
         flood-color="rgb(0,0,0)"
         flood-opacity="0.8" />
      <feComposite
         id="feComposite2957-6"
         result="composite1"
         operator="out"
         in2="SourceGraphic"
         in="flood" />
      <feGaussianBlur
         id="feGaussianBlur2959-56"
         result="blur"
         stdDeviation="8"
         in="composite1" />
      <feOffset
         id="feOffset2961-9"
         result="offset"
         dy="0"
         dx="0" />
      <feComposite
         id="feComposite2963-3"
         result="composite2"
         operator="atop"
         in2="SourceGraphic"
         in="offset" />
    </filter>
    <filter
       id="filter2953-7"
       inkscape:label="Drop Shadow"
       style="color-interpolation-filters:sRGB">
      <feFlood
         id="feFlood2943-4"
         result="flood"
         flood-color="rgb(0,0,0)"
         flood-opacity="0.8" />
      <feComposite
         id="feComposite2945-5"
         result="composite1"
         operator="out"
         in2="SourceGraphic"
         in="flood" />
      <feGaussianBlur
         id="feGaussianBlur2947-2"
         result="blur"
         stdDeviation="8"
         in="composite1" />
      <feOffset
         id="feOffset2949-5"
         result="offset"
         dy="0"
         dx="0" />
      <feComposite
         id="feComposite2951-4"
         result="composite2"
         operator="atop"
         in2="SourceGraphic"
         in="offset" />
    </filter>
    <filter
       id="filter2989-7"
       inkscape:label="Drop Shadow"
       style="color-interpolation-filters:sRGB">
      <feFlood
         id="feFlood2979-4"
         result="flood"
         flood-color="rgb(0,0,0)"
         flood-opacity="0.8" />
      <feComposite
         id="feComposite2981-4"
         result="composite1"
         operator="out"
         in2="SourceGraphic"
         in="flood" />
      <feGaussianBlur
         id="feGaussianBlur2983-3"
         result="blur"
         stdDeviation="8"
         in="composite1" />
      <feOffset
         id="feOffset2985-07"
         result="offset"
         dy="0"
         dx="0" />
      <feComposite
         id="feComposite2987-8"
         result="composite2"
         operator="atop"
         in2="SourceGraphic"
         in="offset" />
    </filter>
    <filter
       id="filter2977-6"
       inkscape:label="Drop Shadow"
       style="color-interpolation-filters:sRGB">
      <feFlood
         id="feFlood2967-8"
         result="flood"
         flood-color="rgb(0,0,0)"
         flood-opacity="0.8" />
      <feComposite
         id="feComposite2969-84"
         result="composite1"
         operator="out"
         in2="SourceGraphic"
         in="flood" />
      <feGaussianBlur
         id="feGaussianBlur2971-31"
         result="blur"
         stdDeviation="8"
         in="composite1" />
      <feOffset
         id="feOffset2973-4"
         result="offset"
         dy="0"
         dx="0" />
      <feComposite
         id="feComposite2975-9"
         result="composite2"
         operator="atop"
         in2="SourceGraphic"
         in="offset" />
    </filter>
    <filter
       id="filter1778-20"
       inkscape:label="Drop Shadow"
       style="color-interpolation-filters:sRGB">
      <feFlood
         id="feFlood1768-6"
         result="flood"
         flood-color="rgb(0,0,0)"
         flood-opacity="0.501961" />
      <feComposite
         id="feComposite1770-8"
         result="composite1"
         operator="out"
         in2="SourceGraphic"
         in="flood" />
      <feGaussianBlur
         id="feGaussianBlur1772-9"
         result="blur"
         stdDeviation="5"
         in="composite1" />
      <feOffset
         id="feOffset1774-2"
         result="offset"
         dy="0"
         dx="0" />
      <feComposite
         id="feComposite1776-6"
         result="composite2"
         operator="atop"
         in2="SourceGraphic"
         in="offset" />
    </filter>
    <filter
       inkscape:collect="always"
       style="color-interpolation-filters:sRGB"
       id="filter2290"
       x="-0.1633452"
       width="1.3266904"
       y="-1.8359999"
       height="4.6719999">
      <feGaussianBlur
         inkscape:collect="always"
         stdDeviation="20.240625"
         id="feGaussianBlur2292" />
    </filter>
  </defs>
  <sodipodi:namedview
     id="base"
     pagecolor="#ffffff"
     bordercolor="#666666"
     borderopacity="1.0"
     inkscape:pageopacity="0.0"
     inkscape:pageshadow="2"
     inkscape:zoom="1"
     inkscape:cx="522.67093"
     inkscape:cy="298.74649"
     inkscape:document-units="px"
     inkscape:current-layer="layer1"
     inkscape:document-rotation="0"
     showgrid="false"
     units="px"
     inkscape:window-width="1920"
     inkscape:window-height="1005"
     inkscape:window-x="-9"
     inkscape:window-y="-9"
     inkscape:window-maximized="1" />
  <metadata
     id="metadata1221">
    <rdf:RDF>
      <cc:Work
         rdf:about="">
        <dc:format>image/svg+xml</dc:format>
        <dc:type
           rdf:resource="http://purl.org/dc/dcmitype/StillImage" />
        <dc:title />
      </cc:Work>
    </rdf:RDF>
  </metadata>
  <g
     inkscape:label="Layer 1"
     inkscape:groupmode="layer"
     id="layer1">
    <rect
       y="-4.536133e-06"
       x="3.3984375e-07"
       height="132.29167"
       width="270.93335"
       id="rect815"
       style="fill:#e2f0d2;fill-opacity:1;stroke:none;stroke-width:0.264583;stroke-opacity:1" />
    <rect
       style="fill:#000000;fill-opacity:1;stroke:none;stroke-width:0.264583;filter:url(#filter2290);opacity:0.5"
       id="rect2056"
       width="297.39166"
       height="26.458334"
       x="-13.096875"
       y="119.0625" />
    <g
       transform="matrix(0.97296583,0,0,0.986045,-160.42881,-379.34555)"
       id="layer1-2">
      <path
         id="path5432-0-4-8-3-6-0-8"
         d="m 277.1868,407.36314 a 2.4184631,3.0496761 0 0 0 -2.4726,3.0467 v 24.7282 a 27.999282,24.999324 0 0 0 -2,9.2246 27.999282,24.999324 0 0 0 2.6367,10.5252 c -1.0536,0.3192 -2.1235,0.7453 -3.1192,1.2011 -2.4868,1.1385 -4.5174,2.4277 -4.5174,2.4277 l 0.5332,0.8438 c 0,0 1.9853,-1.2559 4.4003,-2.3613 1.0255,-0.4694 2.1238,-0.9006 3.1699,-1.2051 a 27.999282,24.999324 0 0 0 1.2207,1.8984 c -1.2692,0.3231 -2.5935,0.8432 -3.8067,1.3985 -2.4868,1.1384 -4.5174,2.4257 -4.5174,2.4257 l 0.5332,0.8438 c 0,0 1.9853,-1.2539 4.4003,-2.3594 1.2076,-0.5528 2.5209,-1.0657 3.7246,-1.3633 0.1167,-0.029 0.2255,-0.046 0.3398,-0.07 a 27.999282,24.999324 0 0 0 1.6016,1.877 c -0.3862,0.053 -0.7778,0.1233 -1.1797,0.2226 -1.298,0.3208 -2.6589,0.8547 -3.9024,1.4239 -2.487,1.1383 -4.5174,2.4256 -4.5174,2.4256 l 0.5332,0.8438 c 0,0 1.9851,-1.254 4.4003,-2.3594 1.2076,-0.5527 2.5209,-1.0656 3.7246,-1.3632 0.6742,-0.1667 1.3039,-0.2508 1.8632,-0.2578 a 27.999282,24.999324 0 0 0 1.5546,1.3653 20.999462,19.999459 0 0 0 -2.0761,8.617 20.999462,19.999459 0 0 0 9.1405,16.5056 5.8963738,8.0763567 78.403593 0 0 -1.9726,5.4434 5.8963738,8.0763567 78.403593 0 0 9.4666,3.7245 5.8963738,8.0763567 78.403593 0 0 4.3633,-2.3086 8.0763567,5.8963738 11.596407 0 0 4.3651,2.3086 8.0763567,5.8963738 11.596407 0 0 9.4667,-3.7226 8.0763567,5.8963738 11.596407 0 0 -1.9882,-5.4609 20.999462,19.999459 0 0 0 5.4824,-5.1894 c 1.7151,0.8026 3.3871,2.151 5.0897,3.5097 4.2179,3.3667 9.8229,4.2921 14.1151,1.6836 4.2924,-2.6082 6.5251,-7.9169 6.4706,-14.4725 a 3.9997761,4.000292 0 0 0 -4.0937,-4.0213 3.9997761,4.000292 0 0 0 -3.9062,4.0897 c 0.039,4.7524 -1.4907,6.8789 -2.6249,7.5683 -1.1346,0.6894 -2.6216,0.7752 -4.9707,-1.0997 -1.5597,-1.2449 -3.7796,-3.2029 -6.8281,-4.5741 a 20.999462,19.999459 0 0 0 0.4239,-3.9843 20.999462,19.999459 0 0 0 -2.0703,-8.6131 27.999282,24.999324 0 0 0 1.5312,-1.3692 c 0.563,0.01 1.1981,0.09 1.8789,0.2578 1.2036,0.2976 2.5171,0.8105 3.7245,1.3632 2.4152,1.1054 4.4004,2.3594 4.4004,2.3594 l 0.5352,-0.8438 c 0,0 -2.0326,-1.2873 -4.5196,-2.4256 -1.2433,-0.5692 -2.6023,-1.1031 -3.9003,-1.4239 -0.3909,-0.097 -0.7736,-0.1654 -1.1503,-0.2187 a 27.999282,24.999324 0 0 0 1.5976,-1.875 c 0.1052,0.023 0.2052,0.038 0.3125,0.064 1.2036,0.2976 2.5169,0.8105 3.7245,1.3633 2.4152,1.1055 4.4004,2.3594 4.4004,2.3594 l 0.5352,-0.8438 c 0,0 -2.0326,-1.2873 -4.5196,-2.4257 -1.2206,-0.5587 -2.5518,-1.0817 -3.828,-1.4043 a 27.999282,24.999324 0 0 0 1.2227,-1.8985 c 1.0518,0.3046 2.1573,0.7387 3.1893,1.211 2.4152,1.1054 4.4004,2.3613 4.4004,2.3613 l 0.5352,-0.8438 c 0,0 -2.0326,-1.2892 -4.5196,-2.4277 -0.9963,-0.4561 -2.0654,-0.8819 -3.119,-1.2011 a 27.999282,24.999324 0 0 0 2.6386,-10.5252 27.999282,24.999324 0 0 0 -2,-9.2519 v -24.7009 a 2.4184631,3.0496761 0 0 0 -2.4745,-3.0467 2.4184631,3.0496761 0 0 0 -1.1524,0.4062 l -16.656,12.1268 a 27.999282,24.999324 0 0 0 -5.7167,-0.5332 27.999282,24.999324 0 0 0 -5.6934,0.5507 l -16.6813,-12.1443 a 2.4184631,3.0496761 0 0 0 -1.1524,-0.4062 z m 0.5274,5.9979 5.6815,11.3611 a 27.999641,24.999674 0 0 0 -5.6815,5.3926 z m 45.9994,0 v 16.7908 a 27.999641,24.999674 0 0 0 -5.6913,-5.4082 z m -37.396,28.0035 v 0 c 0.9902,-0.019 2.0018,0.092 3.0019,0.3379 3.9945,0.9905 7.0212,3.9822 7.3866,7.5761 a 0.86929067,0.86929048 0 0 1 -0.1738,0.6172 c -2.2377,2.9221 -6.4272,4.1114 -10.4276,3.1269 -3.9947,-0.9902 -7.023,-3.982 -7.3885,-7.5761 a 0.86929067,0.86929048 0 0 1 0.1738,-0.6171 c 1.6784,-2.192 4.4549,-3.4089 7.4257,-3.4649 z m 28.7886,0 v 0 c 2.9708,0.056 5.7472,1.2728 7.4257,3.4649 a 0.86929067,0.86929048 0 0 1 0.1738,0.6171 c -0.3655,3.5941 -3.394,6.5859 -7.3886,7.5761 -4.0005,0.9845 -8.1898,-0.2048 -10.4276,-3.1269 a 0.86929067,0.86929048 0 0 1 -0.1738,-0.6172 c 0.3654,-3.5939 3.3922,-6.5856 7.3866,-7.5761 1.0001,-0.2459 2.0116,-0.3569 3.0019,-0.3379 z m -24.8942,1.9981 a 2.4997853,2.9999609 0 0 0 -2.5,3 2.4997853,2.9999609 0 0 0 2.5,2.9999 2.4997853,2.9999609 0 0 0 2.5,-2.9999 2.4997853,2.9999609 0 0 0 -2.5,-3 z m 21.0017,0 a 2.4997853,2.9999609 0 0 0 -2.4999,3 2.4997853,2.9999609 0 0 0 2.4999,2.9999 2.4997853,2.9999609 0 0 0 2.498,-2.9999 2.4997853,2.9999609 0 0 0 -2.498,-3 z m -10.4998,11.9978 a 2.9999615,1.9999739 0 0 1 2.9999,2 2.9999615,1.9999739 0 0 1 -2.9999,2 2.9999615,1.9999739 0 0 1 -3,-2 2.9999615,1.9999739 0 0 1 3,-2 z"
         style="display:inline;opacity:1;fill:#000000;fill-opacity:1;stroke:none;stroke-width:6;stroke-linecap:round;stroke-linejoin:round;stroke-miterlimit:4;stroke-dasharray:none;stroke-opacity:1" />
    </g>
  </g>
</svg>
